<?xml version="1.0" standalone="no"?>
<!DOCTYPE svg PUBLIC "-//W3C//DTD SVG 20010904//EN"
 "http://www.w3.org/TR/2001/REC-SVG-20010904/DTD/svg10.dtd">
<svg version="1.0" xmlns="http://www.w3.org/2000/svg"
 width="64.000000pt" height="64.000000pt" viewBox="0 0 64.000000 64.000000"
 preserveAspectRatio="xMidYMid meet">

<g transform="translate(0.000000,64.000000) scale(0.100000,-0.100000)"
fill="#fff" stroke="none">
<path d="M509 548 c-49 -36 -151 -135 -195 -191 l-30 -37 -58 41 -58 42 -25
-25 -24 -25 76 -109 c42 -60 80 -113 85 -117 4 -5 46 49 92 120 84 127 222
303 239 303 5 0 9 7 9 15 0 27 -63 18 -111 -17z"/>
<path d="M195 491 c-107 -49 -157 -160 -121 -268 19 -57 73 -114 128 -138 103
-42 233 9 279 109 20 43 26 146 9 146 -5 0 -10 -17 -10 -39 0 -171 -183 -266
-318 -164 -96 72 -96 234 0 306 47 35 100 49 153 42 28 -5 45 -3 45 3 0 28
-107 30 -165 3z"/>
</g>
</svg>
